<?xml version="1.0" standalone="no"?>
<!DOCTYPE svg PUBLIC "-//W3C//DTD SVG 20010904//EN"
 "http://www.w3.org/TR/2001/REC-SVG-20010904/DTD/svg10.dtd">
<svg version="1.0" xmlns="http://www.w3.org/2000/svg"
 width="400.000000pt" height="400.000000pt" viewBox="0 0 400.000000 400.000000"
 preserveAspectRatio="xMidYMid meet">

<g transform="translate(0.000000,400.000000) scale(0.100000,-0.100000)"
fill="#000000" stroke="none">
<path d="M0 3694 l0 -306 33 6 c27 5 39 1 66 -23 26 -23 38 -27 59 -22 17 5
28 15 30 29 3 18 10 22 37 22 19 0 37 5 40 10 10 16 55 11 100 -11 l43 -21 30
22 c24 18 38 21 65 16 19 -4 38 -13 41 -21 7 -19 30 -19 45 -1 20 24 106 46
180 46 39 0 71 5 73 10 5 17 117 24 348 22 263 -2 337 -9 362 -34 20 -20 36
-22 57 -9 10 7 5 11 -18 16 -17 3 -31 11 -31 16 0 13 45 29 81 29 33 0 37 7
12 26 -17 11 -16 13 8 19 15 4 40 5 55 3 23 -2 29 -8 29 -28 0 -21 7 -26 44
-34 40 -9 46 -7 59 12 17 25 62 30 62 7 0 -8 6 -15 13 -16 6 0 3 -4 -8 -9 -11
-4 -31 -6 -45 -4 -28 5 -51 -10 -68 -42 -11 -20 -9 -22 36 -27 26 -2 65 -12
87 -22 22 -10 41 -17 43 -16 5 2 -3 16 -9 14 -4 -1 -13 11 -19 28 -11 26 -11
33 4 47 14 15 16 15 16 0 0 -9 8 -26 18 -38 16 -19 22 -21 40 -11 12 6 22 18
22 26 0 8 8 18 17 24 24 13 13 22 -36 28 -31 4 -41 10 -41 24 0 9 8 20 18 22
9 3 2 5 -16 6 -18 0 -31 5 -28 10 9 14 169 2 185 -14 13 -12 12 -15 -2 -21 -9
-3 -21 -21 -27 -40 -6 -19 -16 -34 -21 -34 -5 0 -9 -8 -9 -17 0 -12 25 -31 76
-57 50 -26 72 -42 65 -49 -6 -6 -25 -1 -57 17 -54 30 -55 30 -52 14 2 -8 -9
-14 -24 -16 -36 -4 -36 -28 -3 -73 14 -19 31 -46 37 -61 16 -37 38 -36 38 0 0
31 31 67 51 60 18 -6 16 -103 -2 -104 -8 0 -19 -2 -25 -2 -14 -2 -24 -57 -13
-73 10 -16 29 -2 22 16 -3 8 0 15 7 15 9 0 11 -10 6 -32 -4 -24 -3 -29 4 -18
9 13 11 13 19 1 12 -19 34 -2 51 39 15 37 28 38 32 4 l3 -26 38 38 c22 22 37
47 37 62 0 21 33 61 53 62 19 1 4 -29 -18 -34 -21 -5 -25 -12 -25 -42 0 -19
-3 -33 -8 -30 -4 2 -12 -7 -19 -20 -6 -14 -7 -26 -2 -30 16 -10 10 -29 -13
-39 -16 -7 -26 -26 -36 -65 -7 -30 -18 -61 -24 -68 -20 -24 -77 -44 -115 -40
-31 2 -38 -1 -41 -16 -2 -11 3 -23 12 -28 9 -5 16 -16 16 -23 0 -16 26 -21 32
-7 2 5 18 12 36 15 28 6 34 3 41 -16 5 -13 4 -25 -2 -28 -5 -4 4 -14 22 -23
34 -18 39 -16 15 8 -14 15 -14 16 1 16 9 0 34 -9 55 -19 l40 -19 8 31 c8 29
12 32 49 31 27 0 53 -10 81 -30 52 -36 58 -51 32 -79 -11 -12 -20 -27 -20 -34
0 -6 -9 -30 -21 -52 -11 -23 -18 -48 -15 -56 5 -11 2 -13 -11 -8 -10 4 -74 11
-141 16 -68 4 -127 11 -130 14 -4 4 21 4 56 0 43 -5 62 -4 62 4 0 6 -12 11
-27 10 -33 -2 -98 28 -168 76 -33 23 -56 33 -70 29 -11 -3 -15 -2 -9 3 6 4 13
17 16 28 3 11 9 28 13 38 6 13 2 17 -16 17 -13 0 -30 4 -38 9 -12 8 -12 11 1
25 9 8 18 13 20 10 8 -7 48 80 45 100 -1 11 -12 31 -25 44 -12 14 -22 33 -22
42 0 21 34 53 44 43 5 -5 7 1 4 12 -2 11 -11 21 -21 23 -23 5 -58 -37 -52 -62
5 -25 -12 -169 -27 -218 -8 -27 -19 -40 -39 -47 -16 -5 -29 -17 -29 -25 0 -9
-4 -16 -10 -16 -5 0 -10 -18 -10 -41 l0 -41 43 7 c23 4 50 11 60 17 13 7 17 5
18 -9 1 -34 35 -77 80 -101 43 -24 108 -39 199 -46 50 -4 156 -21 210 -34 25
-5 36 -14 38 -29 2 -12 14 -25 30 -31 70 -24 101 -32 134 -32 39 0 162 -41
187 -63 9 -8 26 -18 39 -21 12 -4 22 -14 22 -21 0 -14 -14 -14 -88 1 -13 3
-31 -3 -43 -15 -17 -16 -26 -18 -45 -9 -13 6 -27 8 -30 5 -25 -25 0 -262 31
-297 27 -30 -9 -33 -51 -5 -20 14 -47 25 -58 25 -12 0 -26 4 -31 9 -10 8 -136
31 -176 31 -17 0 -20 -5 -17 -25 6 -30 -9 -32 -53 -9 -17 8 -36 13 -42 11 -24
-9 -40 -96 -34 -186 4 -47 2 -103 -2 -123 -8 -33 -6 -38 13 -43 11 -4 30 -10
41 -15 11 -5 31 -14 45 -20 14 -6 39 -19 55 -30 17 -11 39 -24 50 -29 11 -5
51 -41 88 -80 60 -63 67 -76 67 -111 0 -48 -17 -52 -57 -16 -15 14 -45 28 -67
31 -23 4 -55 18 -73 31 -30 23 -32 23 -52 6 -23 -20 -32 -95 -13 -114 7 -7 12
-18 12 -25 0 -7 6 -13 14 -13 7 0 21 -24 31 -55 9 -30 21 -57 26 -61 14 -8 11
-76 -3 -72 -7 3 -15 15 -18 28 -4 18 -7 20 -17 9 -6 -8 -12 -23 -14 -34 -3
-15 -11 -8 -38 33 -18 29 -37 52 -41 52 -5 0 -16 7 -25 16 -13 13 -21 14 -41
6 -28 -14 -30 -28 -6 -55 15 -19 16 -20 0 -14 -9 3 -34 11 -55 16 -30 8 -43
19 -60 53 -12 24 -24 51 -27 60 -3 9 -23 26 -45 38 -37 18 -44 19 -73 6 -46
-19 -130 -111 -130 -142 -1 -13 -4 -27 -9 -30 -16 -10 -9 -89 13 -134 12 -25
22 -48 22 -52 1 -4 7 -13 14 -19 23 -24 15 -49 -17 -49 -16 0 -32 -6 -34 -12
-4 -10 -8 -9 -16 2 -15 20 -5 -40 15 -93 18 -47 18 -44 -6 -57 -17 -9 -22 -5
-40 29 -26 52 -37 57 -60 29 -13 -15 -22 -19 -27 -12 -5 6 -18 16 -30 23 -20
10 -23 9 -23 -10 0 -12 8 -23 20 -26 11 -3 20 -12 20 -19 0 -22 -57 -17 -81 7
-19 19 -27 20 -107 13 -48 -4 -96 -7 -107 -7 -11 1 -36 -1 -57 -4 -34 -4 -36
-6 -34 -38 l3 -33 -38 20 c-39 20 -59 18 -59 -6 0 -24 -36 -47 -62 -41 -30 8
-44 -7 -53 -59 -6 -28 -5 -37 4 -32 14 9 15 -6 0 -21 -7 -7 -6 -15 5 -26 14
-14 13 -16 -12 -25 -28 -11 2 -10 117 4 l44 6 -27 24 c-33 31 -33 52 0 64 18
7 33 6 55 -5 33 -17 36 -14 41 40 3 26 7 30 32 30 41 0 42 -15 1 -59 -19 -21
-35 -42 -35 -46 0 -18 13 -40 23 -40 6 0 8 3 4 6 -3 3 6 17 21 31 15 13 34 35
42 49 14 21 19 22 34 11 16 -12 17 -16 5 -38 -8 -13 -21 -29 -29 -35 -8 -7
-12 -16 -8 -20 4 -4 14 -1 23 6 12 10 15 10 15 0 0 -8 7 -5 18 7 21 25 61 33
182 35 105 1 199 -10 180 -22 -10 -6 -10 -14 1 -39 11 -24 18 -29 36 -25 13 4
23 2 23 -4 0 -16 71 15 92 39 9 10 22 19 29 19 7 0 63 38 124 85 84 64 119 85
142 85 17 0 49 6 71 14 23 8 83 20 134 25 51 6 109 15 128 21 19 5 76 12 127
14 51 3 98 8 105 12 7 5 18 9 23 10 6 1 37 7 69 13 33 6 101 11 151 11 65 0
97 4 111 15 10 8 40 15 65 15 26 0 75 9 109 20 34 11 67 20 72 20 5 0 28 9 50
20 23 11 52 20 65 20 13 0 23 4 23 10 0 5 10 12 23 15 13 4 29 18 35 33 19 40
47 89 63 108 8 10 15 27 16 38 1 12 5 54 9 94 5 56 10 72 23 73 9 1 32 2 51 3
19 1 51 3 70 5 l35 3 -35 9 c-19 5 -56 10 -81 9 -26 0 -51 6 -57 13 -22 27
-37 139 -62 462 -9 119 -39 247 -72 310 -12 22 -28 54 -37 70 -18 36 -135 155
-169 172 -13 7 -34 15 -46 17 -44 8 -96 36 -130 69 -33 34 -72 120 -61 137 9
14 -16 110 -42 162 -15 31 -30 88 -40 151 -24 168 -30 200 -48 247 -22 61 -52
120 -76 150 -34 44 -12 66 76 79 25 4 43 13 50 26 16 30 29 32 127 19 26 -3
52 -12 59 -20 9 -11 15 -11 38 1 17 8 33 10 42 5 12 -8 56 -4 68 6 2 2 -7 12
-19 22 -13 10 -20 24 -17 30 8 12 93 32 139 32 26 0 29 2 18 15 -7 8 -21 15
-31 15 -13 0 -19 7 -19 24 0 26 16 36 60 36 23 0 28 -4 28 -25 0 -14 -4 -25
-8 -25 -16 0 6 -65 23 -68 9 -2 17 1 17 7 0 6 -4 11 -10 11 -5 0 -10 7 -10 15
0 11 11 15 40 15 39 0 39 0 33 32 -4 22 -3 29 5 24 7 -4 12 -16 12 -27 0 -11
14 -33 30 -49 17 -17 28 -34 25 -39 -3 -5 -1 -21 5 -35 9 -25 6 -42 -23 -103
-8 -18 -13 -20 -24 -12 -10 9 -13 5 -13 -19 0 -30 23 -61 34 -44 7 11 118 27
164 23 l32 -3 0 396 0 396 -2000 0 -2000 0 0 -306z m2227 -199 c13 -26 25 -36
50 -41 19 -4 32 -11 31 -16 -2 -5 -7 -9 -12 -8 -4 1 -13 -6 -20 -15 -10 -14
-15 -14 -52 6 -62 34 -85 109 -34 109 13 0 26 -12 37 -35z m331 18 c32 -3 70
-5 86 -6 16 -1 31 -7 33 -13 4 -13 -194 -38 -220 -28 -16 6 -19 10 -21 36 -1
13 43 28 57 20 5 -2 34 -6 65 -9z m232 -33 c0 -5 -16 -10 -36 -10 -19 0 -33 4
-30 8 7 12 66 14 66 2z m-365 -40 c-3 -5 -15 -10 -26 -10 -11 0 -17 5 -14 10
3 6 15 10 26 10 11 0 17 -4 14 -10z m595 -24 c0 -8 -4 -17 -9 -21 -12 -7 -24
12 -16 25 9 15 25 12 25 -4z m-80 -115 c0 -10 7 -24 16 -32 8 -7 13 -21 11
-31 -3 -10 -1 -20 3 -23 13 -8 4 -41 -20 -81 -16 -24 -29 -34 -47 -34 -26 0
-26 0 -7 22 19 21 19 21 -6 15 -14 -4 -30 -7 -36 -7 -7 0 -12 -6 -11 -12 0 -7
-1 -23 -1 -35 -4 -47 -80 -19 -140 50 -13 15 -32 27 -43 27 -35 0 -19 20 21
26 32 5 42 12 46 31 5 18 11 23 25 19 11 -3 28 -9 38 -12 15 -4 23 2 35 28 26
52 116 91 116 49z m-245 -11 c4 -6 -6 -10 -22 -9 -25 0 -26 1 -8 9 11 5 21 9
22 9 1 1 5 -3 8 -9z m-205 -280 c0 -16 -5 -30 -10 -30 -6 0 -9 14 -8 30 1 17
6 30 10 30 4 0 8 -13 8 -30z m-102 -64 c16 -18 16 -18 -5 -5 -16 10 -23 23
-22 44 2 27 2 28 6 5 3 -14 12 -34 21 -44z m62 44 c0 -5 -4 -10 -10 -10 -5 0
-10 5 -10 10 0 6 5 10 10 10 6 0 10 -4 10 -10z m-88 -95 c0 -5 -5 -11 -11 -13
-6 -2 -11 4 -11 13 0 9 5 15 11 13 6 -2 11 -8 11 -13z m322 -261 c9 -35 4 -38
-23 -13 -18 17 -20 23 -9 30 21 13 25 11 32 -17z m445 -528 c9 -11 8 -15 -5
-20 -32 -12 -54 -7 -54 14 0 24 41 28 59 6z m-29 -51 c11 -13 6 -15 -35 -15
-41 0 -46 2 -35 15 7 8 23 15 35 15 12 0 28 -7 35 -15z m-85 -222 c-3 -16 -15
-37 -26 -49 -10 -11 -19 -30 -19 -43 0 -12 -5 -31 -10 -42 -6 -10 -12 -45 -14
-78 -5 -67 -13 -101 -26 -101 -6 0 -5 -11 0 -26 6 -14 8 -29 5 -34 -3 -4 4
-10 15 -13 18 -5 27 -33 20 -62 -6 -21 0 -58 11 -72 7 -7 9 -16 5 -20 -3 -3 1
-14 9 -23 12 -14 13 -26 5 -72 -11 -57 -2 -128 15 -130 6 -1 12 11 15 28 6 33
16 32 44 -4 11 -14 30 -35 43 -48 l23 -23 5 25 c3 13 7 35 10 49 7 35 52 35
61 1 4 -16 11 -23 20 -19 8 3 14 -1 14 -10 0 -20 -39 -67 -55 -67 -8 0 -23
-10 -34 -21 -15 -16 -27 -20 -49 -16 -33 7 -103 51 -115 73 -14 25 -37 124
-37 159 0 20 -6 37 -16 43 -12 6 -16 31 -20 101 -2 51 -6 97 -9 101 -3 5 -8
40 -11 78 -5 59 -2 78 20 132 14 35 26 74 26 86 0 13 4 25 9 28 5 4 19 26 31
51 24 50 46 61 35 18z m300 -131 c18 -13 45 -73 45 -101 0 -32 -21 -81 -35
-81 -5 0 -25 -13 -42 -28 -32 -27 -33 -30 -33 -103 0 -43 5 -80 11 -86 7 -7
12 -46 13 -90 1 -68 -2 -81 -21 -103 -25 -26 -25 -27 -29 60 -1 30 -5 71 -8
90 -3 19 -6 87 -7 150 -1 77 -4 102 -8 75 l-7 -40 -5 45 c-3 25 -3 56 -1 68 4
20 9 23 34 18 24 -5 30 -2 38 20 6 14 10 42 10 63 0 48 16 64 45 43z m125 -38
c0 -23 -20 -55 -31 -49 -10 7 -12 48 -2 58 12 13 33 7 33 -9z m-342 -459 c10
-9 -13 -47 -31 -54 -25 -10 -57 7 -57 29 0 27 65 45 88 25z m-705 -155 c10
-16 16 -30 14 -30 -2 0 -13 14 -25 30 -13 17 -19 30 -14 30 4 0 16 -13 25 -30z
m-335 -554 c3 -12 -1 -17 -10 -14 -7 3 -15 13 -16 22 -3 12 1 17 10 14 7 -3
15 -13 16 -22z m-751 -42 c-3 -3 -12 -4 -19 -1 -8 3 -5 6 6 6 11 1 17 -2 13
-5z"/>
<path d="M1688 3413 c6 -2 18 -2 25 0 6 3 1 5 -13 5 -14 0 -19 -2 -12 -5z"/>
<path d="M1470 3400 c0 -5 7 -10 16 -10 8 0 12 5 9 10 -3 6 -10 10 -16 10 -5
0 -9 -4 -9 -10z"/>
<path d="M1407 3323 c-4 -3 -7 -11 -7 -17 0 -6 5 -5 12 2 6 6 9 14 7 17 -3 3
-9 2 -12 -2z"/>
<path d="M1 3263 c-1 -32 3 -43 14 -43 8 0 15 -9 15 -19 0 -29 17 -35 30 -11
8 15 21 20 50 20 60 0 48 16 -30 41 -42 13 -71 28 -73 38 -3 9 -5 -3 -6 -26z"/>
<path d="M3600 3273 c0 -4 5 -15 10 -23 8 -13 10 -13 10 2 0 9 -4 20 -10 23
-5 3 -10 3 -10 -2z"/>
<path d="M3721 3104 c0 -11 3 -14 6 -6 3 7 2 16 -1 19 -3 4 -6 -2 -5 -13z"/>
<path d="M2156 3022 c-3 -6 -2 -22 4 -37 14 -36 13 -37 -10 -25 -13 7 -20 7
-20 0 0 -5 9 -15 20 -22 11 -7 20 -18 20 -25 0 -16 12 -17 27 -2 6 6 7 26 3
51 -8 43 -33 77 -44 60z"/>
<path d="M2191 2696 c-9 -10 -9 -16 -1 -21 17 -10 37 12 24 25 -8 8 -15 6 -23
-4z"/>
<path d="M1897 2610 c-8 -10 -13 -21 -10 -24 4 -3 -6 -6 -20 -6 -22 0 -27 -5
-27 -25 0 -20 -6 -27 -30 -31 -16 -4 -32 -14 -35 -24 -3 -9 -17 -23 -30 -30
-14 -7 -25 -16 -25 -19 1 -3 16 -16 35 -28 28 -18 35 -19 35 -7 0 8 7 25 15
38 14 21 22 23 74 20 54 -3 59 -1 70 22 8 19 16 24 31 19 32 -10 24 22 -10 40
-21 11 -30 23 -30 39 0 31 -23 39 -43 16z"/>
<path d="M1870 2330 c0 -5 5 -10 10 -10 6 0 10 5 10 10 0 6 -4 10 -10 10 -5 0
-10 -4 -10 -10z"/>
<path d="M1800 2310 c0 -6 4 -18 9 -28 5 -9 12 -25 15 -34 2 -9 13 -15 23 -14
21 4 19 29 -3 64 -15 22 -44 31 -44 12z"/>
<path d="M1763 2233 c-19 -7 -16 -40 4 -47 21 -8 36 6 31 30 -3 19 -16 25 -35
17z"/>
<path d="M1720 2160 c0 -5 5 -10 10 -10 6 0 10 5 10 10 0 6 -4 10 -10 10 -5 0
-10 -4 -10 -10z"/>
<path d="M1451 2131 c-12 -17 -25 -30 -29 -30 -28 4 -48 -7 -87 -48 l-45 -46
29 -18 c17 -10 31 -29 34 -46 7 -36 2 -40 -23 -18 -12 10 -26 15 -37 11 -15
-6 -15 -8 -3 -16 8 -6 22 -10 30 -10 17 0 40 -63 40 -110 0 -29 24 -100 34
-100 2 0 13 16 25 36 14 24 21 52 21 89 0 30 5 57 10 60 6 3 10 31 10 61 0 30
5 54 10 54 6 0 10 7 10 15 0 8 10 35 22 60 17 35 20 50 12 63 -18 28 -40 25
-63 -7z"/>
<path d="M2175 2130 c-3 -5 1 -10 9 -10 9 0 16 5 16 10 0 6 -4 10 -9 10 -6 0
-13 -4 -16 -10z"/>
<path d="M1715 2120 c3 -5 12 -7 20 -3 21 7 19 13 -6 13 -11 0 -18 -4 -14 -10z"/>
<path d="M2033 2043 c-39 -5 -64 -30 -42 -44 27 -17 80 -10 99 13 18 23 11 40
-15 36 -5 -1 -24 -3 -42 -5z"/>
<path d="M1822 1952 c-16 -14 -19 -25 -14 -47 12 -54 25 -67 54 -56 15 5 29
19 33 30 8 27 25 27 32 1 4 -15 14 -20 42 -20 30 0 42 6 60 31 30 41 18 49
-72 49 -47 0 -73 5 -83 15 -20 19 -26 19 -52 -3z"/>
<path d="M1240 1874 c0 -11 -6 -14 -20 -9 -27 8 -85 -11 -114 -39 -23 -20 -23
-23 -8 -51 8 -17 17 -25 19 -17 3 6 17 12 31 12 15 0 40 7 56 15 16 9 35 14
43 11 20 -8 28 16 10 29 -23 17 -21 35 3 35 24 0 27 15 4 24 -22 9 -24 8 -24
-10z"/>
<path d="M1598 1843 c6 -2 18 -2 25 0 6 3 1 5 -13 5 -14 0 -19 -2 -12 -5z"/>
<path d="M1060 1653 c0 -39 13 -55 41 -51 33 4 37 41 7 62 -33 23 -48 20 -48
-11z"/>
<path d="M11 1651 c-11 -7 17 -11 90 -15 57 -2 127 -7 154 -10 38 -5 45 -4 27
4 -32 14 -53 17 -162 24 -57 4 -101 3 -109 -3z"/>
<path d="M727 1580 c6 -23 14 -25 31 -8 18 18 14 28 -12 28 -19 0 -23 -4 -19
-20z"/>
<path d="M922 1558 c5 -14 85 -38 104 -31 21 8 6 23 -22 23 -13 0 -24 5 -24
10 0 6 -14 10 -31 10 -19 0 -29 -4 -27 -12z"/>
<path d="M125 1520 c-3 -5 -2 -10 4 -10 5 0 13 5 16 10 3 6 2 10 -4 10 -5 0
-13 -4 -16 -10z"/>
<path d="M740 1517 c0 -8 -7 -28 -16 -45 -11 -23 -22 -32 -40 -32 -13 0 -24
-4 -24 -10 0 -9 25 -14 73 -13 9 0 17 -5 17 -11 0 -6 11 9 23 34 l24 45 -20
23 c-23 25 -37 28 -37 9z"/>
<path d="M0 1449 c0 -58 1 -60 23 -53 32 10 47 24 47 45 0 11 7 19 15 19 8 0
15 7 15 15 0 8 5 15 12 15 6 0 9 3 5 6 -3 3 -31 8 -61 10 l-56 3 0 -60z"/>
<path d="M118 1466 c-10 -7 -18 -21 -18 -31 0 -14 6 -16 31 -11 17 3 45 6 61
6 25 0 29 4 26 23 -2 18 -10 22 -43 24 -22 2 -48 -3 -57 -11z"/>
<path d="M502 1468 c-18 -18 -14 -37 6 -34 18 3 29 31 14 40 -5 3 -14 0 -20
-6z"/>
<path d="M248 1454 c-22 -21 42 -34 72 -14 12 8 12 10 -5 10 -11 0 -29 3 -40
6 -11 3 -24 2 -27 -2z"/>
<path d="M900 1406 c-9 -29 -17 -34 -50 -40 -22 -3 -50 -17 -64 -31 l-25 -25
30 0 c29 0 30 -1 23 -36 -5 -28 -2 -39 14 -54 21 -19 21 -19 27 1 4 11 21 29
38 40 18 10 28 19 23 19 -5 0 3 9 17 20 14 11 29 29 32 40 4 11 14 20 23 20
12 1 9 5 -9 15 -28 15 -43 40 -33 56 3 5 -4 9 -15 9 -13 0 -23 -11 -31 -34z"/>
<path d="M983 1430 c-27 -11 -30 -28 -8 -37 9 -3 22 2 30 13 25 34 19 40 -22
24z"/>
<path d="M467 1399 c7 -7 15 -10 18 -7 3 3 -2 9 -12 12 -14 6 -15 5 -6 -5z"/>
<path d="M592 1328 c-12 -24 -23 -54 -24 -67 -3 -25 5 -29 120 -62 28 -8 42
-18 42 -29 0 -14 -8 -16 -51 -12 -36 3 -50 1 -45 -7 4 -6 18 -11 31 -11 13 0
27 -4 30 -10 3 -5 15 -10 26 -10 10 0 19 -5 19 -11 0 -25 121 -52 134 -30 11
18 -6 41 -30 41 -13 0 -24 5 -24 11 0 5 4 7 10 4 16 -10 50 14 50 35 0 17 -7
20 -54 20 -36 0 -58 5 -66 15 -7 9 -21 13 -31 10 -9 -3 -20 -1 -24 5 -3 5 -20
10 -36 10 -18 0 -32 6 -36 16 -7 19 8 49 22 43 14 -6 26 64 12 73 -30 19 -54
8 -75 -34z"/>
<path d="M0 1350 c0 -5 9 -10 20 -10 11 0 20 5 20 10 0 6 -9 10 -20 10 -11 0
-20 -4 -20 -10z"/>
<path d="M0 1310 c0 -5 5 -10 10 -10 6 0 10 5 10 10 0 6 -4 10 -10 10 -5 0
-10 -4 -10 -10z"/>
<path d="M0 1281 c0 -9 52 -22 60 -15 7 7 -23 24 -42 24 -10 0 -18 -4 -18 -9z"/>
<path d="M0 1235 c0 -10 10 -15 31 -15 27 0 29 2 15 15 -8 8 -22 15 -30 15 -9
0 -16 -7 -16 -15z"/>
<path d="M400 1240 c-12 -8 -9 -10 13 -10 15 0 27 5 27 10 0 13 -20 13 -40 0z"/>
<path d="M455 1220 c3 -5 14 -10 23 -10 15 0 15 2 2 10 -20 13 -33 13 -25 0z"/>
<path d="M2448 1203 c7 -3 16 -2 19 1 4 3 -2 6 -13 5 -11 0 -14 -3 -6 -6z"/>
<path d="M5 1180 c-3 -5 -1 -10 4 -10 6 0 11 5 11 10 0 6 -2 10 -4 10 -3 0 -8
-4 -11 -10z"/>
<path d="M455 1170 c-4 -6 11 -10 37 -9 33 0 38 2 23 9 -28 12 -53 12 -60 0z"/>
<path d="M230 1160 c0 -5 5 -10 11 -10 5 0 7 5 4 10 -3 6 -8 10 -11 10 -2 0
-4 -4 -4 -10z"/>
<path d="M310 1106 c0 -13 -7 -15 -38 -10 -49 8 -76 -15 -67 -56 3 -16 2 -31
-4 -35 -14 -8 -14 -42 0 -50 6 -4 16 0 22 8 15 18 77 28 83 13 3 -7 43 -12
102 -14 53 -2 108 -7 122 -12 14 -5 51 -11 83 -15 40 -5 57 -11 57 -21 0 -8
-7 -14 -15 -14 -16 0 -20 -12 -8 -24 4 -3 16 6 28 20 l22 27 79 -17 c43 -10
87 -22 96 -27 24 -12 178 -21 178 -10 0 5 -4 11 -9 13 -5 2 -12 22 -14 45 -3
23 -10 58 -16 76 l-12 35 -127 4 c-78 3 -142 11 -167 20 -119 45 -144 50 -267
55 -113 4 -128 3 -128 -11z"/>
<path d="M72 1087 c-18 -23 -23 -50 -10 -58 13 -8 48 25 48 46 0 18 -27 26
-38 12z"/>
<path d="M161 1044 c0 -11 3 -14 6 -6 3 7 2 16 -1 19 -3 4 -6 -2 -5 -13z"/>
<path d="M165 1010 c3 -5 10 -10 16 -10 5 0 9 5 9 10 0 6 -7 10 -16 10 -8 0
-12 -4 -9 -10z"/>
<path d="M3981 966 c-7 -9 -21 -16 -30 -16 -23 0 -44 -35 -28 -48 17 -14 50 1
66 31 17 32 11 56 -8 33z"/>
<path d="M432 923 c-15 -6 -6 -23 14 -23 8 0 14 7 14 15 0 15 -6 17 -28 8z"/>
<path d="M339 903 c0 -5 -2 -16 -4 -25 -2 -14 4 -18 26 -18 16 0 29 5 29 10 0
6 -4 10 -10 10 -5 0 -10 7 -10 15 0 15 -29 22 -31 8z"/>
<path d="M471 876 c-6 -14 -19 -26 -32 -28 -39 -5 -35 -28 6 -28 29 0 35 -4
33 -17 -5 -28 62 -30 86 -4 16 18 17 23 5 51 -8 16 -23 33 -34 36 -11 3 -28 8
-37 10 -12 4 -21 -3 -27 -20z"/>
<path d="M135 880 c-12 -19 12 -35 52 -34 58 3 60 3 66 18 4 9 -2 14 -16 13
-12 0 -38 3 -58 7 -24 5 -39 4 -44 -4z"/>
<path d="M1018 816 c-4 -17 -1 -23 9 -19 14 6 18 43 4 43 -5 0 -11 -11 -13
-24z"/>
<path d="M205 801 c-3 -6 -15 -11 -26 -11 -11 0 -17 -4 -14 -10 3 -5 26 -10
51 -10 32 0 44 4 44 15 0 8 -4 15 -9 15 -5 0 -16 3 -24 6 -8 3 -18 1 -22 -5z"/>
<path d="M732 795 c2 -14 -3 -21 -19 -23 -13 -2 -23 -10 -23 -17 0 -11 -6 -12
-26 -5 -14 6 -41 10 -61 10 -30 0 -34 -2 -23 -15 9 -11 30 -15 72 -14 33 1 64
-3 71 -10 8 -8 2 -11 -26 -11 -20 0 -37 -5 -37 -11 0 -7 11 -8 31 -4 54 12
144 23 152 18 4 -2 7 7 7 20 0 32 -29 57 -66 57 -17 0 -36 6 -43 13 -10 10
-12 8 -9 -8z"/>
<path d="M1328 783 c12 -2 30 -2 40 0 9 3 -1 5 -23 4 -22 0 -30 -2 -17 -4z"/>
<path d="M953 773 c-7 -2 -13 -13 -13 -23 0 -10 -10 -21 -22 -25 -20 -7 -18
-9 15 -12 45 -5 67 10 67 43 0 24 -17 30 -47 17z"/>
<path d="M1376 743 c-11 -11 -6 -23 9 -23 8 0 15 4 15 9 0 13 -16 22 -24 14z"/>
<path d="M32 723 c-23 -5 -40 -28 -28 -40 7 -7 76 28 76 39 0 8 -9 8 -48 1z"/>
<path d="M1275 711 c-19 -18 21 -30 41 -12 5 5 18 11 29 14 11 2 1 4 -23 3
-24 0 -45 -2 -47 -5z"/>
<path d="M310 690 c-69 -8 -64 -11 24 -13 47 -1 71 2 74 11 4 13 -7 13 -98 2z"/>
<path d="M561 686 c-18 -22 4 -29 44 -15 19 7 35 17 35 21 0 14 -67 9 -79 -6z"/>
<path d="M78 593 c6 -2 18 -2 25 0 6 3 1 5 -13 5 -14 0 -19 -2 -12 -5z"/>
<path d="M3740 570 c0 -5 5 -10 10 -10 6 0 10 5 10 10 0 6 -4 10 -10 10 -5 0
-10 -4 -10 -10z"/>
<path d="M3500 563 c0 -5 11 -9 25 -9 14 -1 25 2 25 7 0 5 -11 9 -25 9 -14 0
-25 -3 -25 -7z"/>
<path d="M3570 540 c0 -5 5 -10 10 -10 6 0 10 5 10 10 0 6 -4 10 -10 10 -5 0
-10 -4 -10 -10z"/>
<path d="M175 508 c-29 -15 -45 -39 -45 -66 0 -21 4 -18 36 23 38 51 40 59 9
43z"/>
<path d="M633 494 c3 -3 2 -16 -3 -29 -7 -20 -6 -22 11 -18 13 4 19 0 19 -11
0 -8 -11 -18 -24 -22 -13 -3 -33 -16 -45 -28 -19 -20 -19 -24 -5 -44 28 -40
112 -24 139 27 30 59 15 101 -37 101 -16 0 -31 7 -34 15 -4 8 -11 15 -17 15
-6 0 -8 -3 -4 -6z"/>
<path d="M940 460 c0 -5 15 -10 33 -10 20 0 42 -8 55 -21 12 -11 27 -17 32
-14 6 3 10 0 11 -7 0 -7 4 -4 8 7 7 17 2 22 -43 37 -58 20 -96 23 -96 8z"/>
<path d="M203 453 c-7 -2 -13 -19 -13 -38 0 -18 -7 -39 -16 -46 -14 -11 -19
-10 -34 9 -10 12 -23 22 -28 22 -17 0 -42 -48 -42 -80 0 -16 -4 -30 -10 -30
-5 0 -10 5 -10 10 0 6 -11 10 -25 10 -21 0 -25 -5 -25 -29 0 -17 6 -31 16 -35
16 -6 16 -8 0 -24 -18 -20 -22 -62 -6 -62 13 0 13 -57 0 -65 -6 -3 -10 -26
-10 -51 0 -39 2 -44 23 -44 23 0 42 31 62 98 3 12 12 22 18 23 7 0 27 18 46
40 29 34 31 39 14 39 -11 0 -37 -11 -57 -25 -20 -14 -41 -25 -46 -25 -13 0
-13 17 0 25 6 3 10 28 10 56 0 45 2 49 23 49 13 0 32 -9 42 -20 26 -29 47 -26
45 8 -3 43 -1 52 13 52 10 0 14 14 15 46 0 27 7 53 16 63 25 28 16 39 -21 24z
m-43 -153 c0 -5 -11 -10 -25 -10 -14 0 -25 5 -25 10 0 6 11 10 25 10 14 0 25
-4 25 -10z"/>
<path d="M27 442 c-8 -11 4 -62 14 -62 5 0 9 16 9 35 0 32 -12 46 -23 27z"/>
<path d="M282 428 c-7 -7 -12 -15 -12 -20 0 -12 28 2 34 18 7 17 -6 18 -22 2z"/>
<path d="M410 432 c0 -5 7 -16 16 -23 14 -12 16 -11 13 5 -4 20 -29 35 -29 18z"/>
<path d="M1480 420 c0 -5 5 -10 10 -10 6 0 10 5 10 10 0 6 -4 10 -10 10 -5 0
-10 -4 -10 -10z"/>
<path d="M1800 420 c0 -4 16 -20 35 -34 26 -20 35 -35 35 -55 0 -37 -24 -47
-38 -15 -15 32 -42 21 -42 -18 0 -16 4 -27 10 -23 5 3 18 1 29 -4 15 -9 23 -5
45 21 14 18 26 35 26 39 0 4 14 12 30 18 35 12 40 39 11 65 -14 12 -34 16 -80
15 -33 -1 -61 -5 -61 -9z"/>
<path d="M1411 411 c-8 -5 -14 -23 -13 -40 1 -36 -43 -83 -85 -91 -14 -3 -28
-11 -31 -19 -4 -11 6 -13 49 -9 43 4 61 11 88 36 22 21 43 32 63 32 23 0 29 4
24 15 -3 8 0 15 7 16 7 0 2 5 -11 11 -13 6 -21 17 -18 24 2 6 -3 14 -12 17 -9
3 -24 7 -32 11 -8 3 -21 2 -29 -3z"/>
<path d="M832 390 c-24 -11 -50 -32 -60 -50 -9 -16 -25 -30 -34 -30 -10 0 -18
-5 -18 -11 0 -6 20 -9 52 -7 46 3 54 6 66 31 15 31 28 35 34 10 3 -10 17 -24
31 -32 22 -12 29 -12 42 -1 14 12 13 15 -6 36 -21 22 -21 25 -6 42 10 10 14
22 10 25 -12 13 -68 6 -111 -13z"/>
<path d="M1742 398 c-7 -7 -12 -16 -12 -22 0 -5 -10 -20 -22 -33 l-21 -23 40
0 c22 0 42 2 44 4 7 7 -2 86 -10 86 -4 0 -12 -5 -19 -12z"/>
<path d="M310 375 c-9 -11 -10 -19 -3 -26 7 -7 14 -5 23 6 21 25 37 18 32 -14
-4 -32 12 -48 32 -32 22 19 50 -22 43 -64 -3 -19 -1 -37 4 -40 5 -4 9 -19 9
-36 0 -16 5 -29 10 -29 13 0 17 12 24 79 5 46 3 54 -13 58 -13 3 -17 11 -14
24 3 10 9 19 14 19 5 0 9 5 9 10 0 6 -15 10 -32 10 -22 0 -41 9 -57 25 -26 28
-62 32 -81 10z"/>
<path d="M1097 340 c-22 -27 -22 -30 8 -30 16 0 25 6 25 15 0 8 7 15 15 15 8
0 15 5 15 10 0 18 -45 11 -63 -10z"/>
<path d="M1557 334 c-14 -15 7 -24 53 -24 49 0 73 13 44 24 -21 8 -89 8 -97 0z"/>
<path d="M1030 320 c0 -5 5 -10 11 -10 5 0 7 5 4 10 -3 6 -8 10 -11 10 -2 0
-4 -4 -4 -10z"/>
<path d="M1630 280 c0 -5 12 -10 28 -10 21 0 24 2 12 10 -20 13 -40 13 -40 0z"/>
<path d="M1065 244 c-14 -15 -25 -34 -25 -43 1 -14 2 -14 10 1 6 9 25 28 43
42 24 20 28 26 14 26 -10 0 -29 -12 -42 -26z"/>
<path d="M1757 243 c-14 -13 -6 -21 23 -25 35 -5 49 17 17 26 -28 7 -32 7 -40
-1z"/>
<path d="M292 227 c-8 -9 -7 -26 2 -58 l14 -46 -33 -12 c-18 -6 -40 -8 -49 -5
-22 8 -66 -32 -66 -61 0 -29 19 -45 54 -45 23 0 27 3 18 12 -16 16 -15 28 2
28 8 0 18 -9 21 -20 9 -29 80 -29 95 0 12 23 8 25 -19 8 -14 -9 -23 -8 -40 4
l-21 15 25 13 c14 7 25 19 25 27 0 7 9 13 19 13 27 0 36 91 10 97 -10 3 -19
13 -22 24 -6 22 -20 25 -35 6z"/>
<path d="M1110 211 c0 -16 6 -21 28 -21 34 0 52 -16 52 -47 0 -17 11 -30 37
-46 20 -12 44 -22 53 -24 15 -2 60 -51 60 -65 0 -5 9 -8 20 -8 13 0 20 7 20
20 0 11 6 20 14 20 14 0 24 17 22 35 0 5 -4 9 -8 8 -5 -2 -8 6 -8 16 0 26 -17
30 -80 20 -61 -10 -106 8 -97 39 13 46 13 46 -33 53 -25 3 -53 9 -62 14 -14 5
-18 2 -18 -14z"/>
<path d="M1430 178 c0 -19 2 -20 10 -8 13 19 13 30 0 30 -5 0 -10 -10 -10 -22z"/>
<path d="M855 170 c6 -20 -2 -26 -60 -45 -16 -5 -17 -8 -5 -15 8 -6 30 -10 48
-10 19 0 40 -8 52 -20 39 -39 46 -26 34 64 -7 45 -8 46 -41 46 -30 0 -34 -3
-28 -20z"/>
<path d="M572 140 c0 -14 2 -19 5 -12 2 6 2 18 0 25 -3 6 -5 1 -5 -13z"/>
<path d="M1051 137 c-12 -23 -12 -34 -3 -61 7 -18 12 -42 12 -54 0 -17 6 -22
25 -22 17 0 25 5 25 18 0 33 -12 62 -26 62 -8 0 -14 16 -16 43 l-3 42 -14 -28z"/>
<path d="M2872 140 c-7 -11 -9 -20 -4 -20 4 0 13 9 20 20 7 11 9 20 4 20 -4 0
-13 -9 -20 -20z"/>
<path d="M417 144 c-4 -4 -7 -15 -7 -23 0 -9 -9 -24 -20 -34 -22 -18 -19 -40
4 -31 22 8 52 72 40 84 -6 6 -13 7 -17 4z"/>
<path d="M513 124 c-24 -25 -11 -63 14 -43 14 12 18 45 6 52 -5 3 -14 -1 -20
-9z"/>
<path d="M636 124 c-3 -9 -6 -23 -6 -32 0 -13 5 -11 19 8 19 23 19 40 1 40 -4
0 -11 -7 -14 -16z"/>
<path d="M575 73 c-4 -16 -10 -36 -16 -45 -13 -25 -12 -28 10 -28 18 0 51 39
51 60 0 12 -24 40 -34 40 -3 0 -8 -12 -11 -27z"/>
<path d="M1483 80 c-13 -5 -23 -18 -23 -30 0 -13 -11 -25 -32 -34 -31 -13 -25
-14 90 -15 100 -1 122 2 122 13 0 8 9 18 20 21 30 10 24 32 -12 43 -44 12
-137 14 -165 2z"/>
<path d="M88 43 c-6 -46 -2 -53 15 -28 14 18 11 65 -3 65 -4 0 -10 -17 -12
-37z"/>
<path d="M1226 44 c-9 -23 -7 -44 3 -44 5 0 11 13 13 30 5 32 -6 41 -16 14z"/>
<path d="M3875 30 c3 -5 10 -10 16 -10 5 0 9 5 9 10 0 6 -7 10 -16 10 -8 0
-12 -4 -9 -10z"/>
<path d="M960 10 c0 -5 12 -10 26 -10 14 0 23 4 19 10 -3 6 -15 10 -26 10 -10
0 -19 -4 -19 -10z"/>
</g>
</svg>
