<svg t="1753414247077" class="icon" viewBox="0 0 1024 1024" version="1.1" xmlns="http://www.w3.org/2000/svg" p-id="4093" width="32" height="32"><path d="M678.4 501.333333h-134.4v-177.066666c0-17.066667-14.933333-32-32-32s-32 14.933333-32 32V533.333333c0 17.066667 14.933333 32 32 32h166.4c17.066667 0 32-14.933333 32-32s-12.8-32-32-32z" p-id="4094" fill="#f4ea2a"></path><path d="M797.866667 814.933333c72.533333-72.533333 117.333333-172.8 117.333333-283.733333 0-81.066667-25.6-157.866667-66.133333-221.866667 23.466667-25.6 36.266667-59.733333 36.266666-93.866666 0-76.8-61.866667-138.666667-138.666666-138.666667-49.066667 0-93.866667 25.6-117.333334 68.266667-36.266667-10.666667-76.8-17.066667-117.333333-17.066667-38.4 0-74.666667 6.4-110.933333 14.933333-25.6-40.533333-68.266667-66.133333-117.333334-66.133333-76.8 0-138.666667 61.866667-138.666666 138.666667 0 32 12.8 64 32 89.6-42.666667 66.133333-68.266667 142.933333-68.266667 228.266666 0 106.666667 42.666667 204.8 110.933333 277.333334l-78.933333 85.333333c-12.8 10.666667-12.8 29.866667 2.133333 42.666667 6.4 6.4 14.933333 8.533333 21.333334 8.533333 8.533333 0 17.066667-4.266667 23.466666-10.666667l78.933334-85.333333c68.266667 51.2 153.6 83.2 245.333333 83.2 89.6 0 170.666667-29.866667 238.933333-78.933333l74.666667 81.066666c6.4 6.4 14.933333 10.666667 23.466667 10.666667 8.533333 0 14.933333-2.133333 21.333333-8.533333 12.8-12.8 12.8-32 2.133333-44.8l-74.666666-78.933334zM746.666667 142.933333c40.533333 0 74.666667 34.133333 74.666666 74.666667 0 14.933333-4.266667 29.866667-12.8 42.666667-34.133333-38.4-74.666667-68.266667-119.466666-89.6 14.933333-17.066667 36.266667-27.733333 57.6-27.733334zM209.066667 217.6c0-40.533333 34.133333-74.666667 74.666666-74.666667 21.333333 0 42.666667 8.533333 55.466667 25.6-44.8 21.333333-85.333333 51.2-119.466667 85.333334-6.4-10.666667-10.666667-23.466667-10.666666-36.266667zM172.8 533.333333c0-187.733333 151.466667-339.2 339.2-339.2S851.2 345.6 851.2 533.333333 699.733333 872.533333 512 872.533333 172.8 718.933333 172.8 533.333333z" p-id="4095" fill="#f4ea2a"></path></svg>